# xmcd
#
# Track frame offsets:
#	150
#	13467
#	28775
#	42778
#	58302
#	77258
#	90566
#	99857
#	120133
#	141951
#
# Disc length: 2044 seconds
#
# Revision: 1
# Processed by: cddbd v1.5.2PL0 Copyright (c) Steve Scherf et al.
# Submitted via: EZCDAudioConverter 2.0.7.1
#
DISCID=7407fa0a
DTITLE=Desert Rose Band - Best of Desert Rose Band
DYEAR=2014
DGENRE=Country
TTITLE0=Love Reunited
TTITLE1=One Step Forward
TTITLE2=He's Back And I'm Blue
TTITLE3=Summer Wind
TTITLE4=I Still Believe In You
TTITLE5=She Don't Love Nobody
TTITLE6=Hello Trouble
TTITLE7=Start All Over Again
TTITLE8=In Another Lifetime
TTITLE9=Story of Love
EXTD=
EXTT0=
EXTT1=
EXTT2=
EXTT3=
EXTT4=
EXTT5=
EXTT6=
EXTT7=
EXTT8=
EXTT9=
PLAYORDER=
